<svg width="13" height="12" viewBox="0 0 13 12" fill="none" xmlns="http://www.w3.org/2000/svg">
<path d="M6.61524 0.152344C6.21086 0.152344 5.88416 0.479044 5.88416 0.883422V1.32207C4.21639 1.66019 2.95985 3.13606 2.95985 4.90435V5.48464C2.95985 6.52186 2.60574 7.52938 1.95919 8.33813L1.61878 8.76536C1.48627 8.92985 1.46114 9.15602 1.55253 9.34565C1.64391 9.53527 1.83582 9.65636 2.04601 9.65636H11.1845C11.3947 9.65636 11.5866 9.53527 11.678 9.34565C11.7693 9.15602 11.7442 8.92985 11.6117 8.76536L11.2713 8.34042C10.6247 7.52938 10.2706 6.52186 10.2706 5.48464V4.90435C10.2706 3.13606 9.01409 1.66019 7.34632 1.32207V0.883422C7.34632 0.479044 7.01962 0.152344 6.61524 0.152344ZM6.61524 2.34558C8.02942 2.34558 9.17401 3.49017 9.17401 4.90435V5.48464C9.17401 6.57897 9.49158 7.64589 10.081 8.55974H3.14948C3.73891 7.64589 4.05647 6.57897 4.05647 5.48464V4.90435C4.05647 3.49017 5.20106 2.34558 6.61524 2.34558ZM8.0774 10.3874H5.15309C5.15309 10.7758 5.30616 11.1482 5.58031 11.4224C5.85446 11.6965 6.22686 11.8496 6.61524 11.8496C7.00363 11.8496 7.37602 11.6965 7.65017 11.4224C7.92433 11.1482 8.0774 10.7758 8.0774 10.3874Z" fill="white"/>
<path d="M3.11419 0.322712C2.90629 0.103388 2.55903 0.09425 2.33971 0.304435C1.22025 1.36907 0.523438 2.87463 0.523438 4.54012C0.523438 4.84397 0.767892 5.08843 1.07175 5.08843C1.3756 5.08843 1.62005 4.84397 1.62005 4.54012C1.62005 3.18534 2.18664 1.96535 3.09592 1.09948C3.31524 0.891582 3.32438 0.54432 3.11419 0.324996V0.322712Z" fill="white"/>
<path d="M9.95096 1.28089C10.8602 2.14676 11.4268 3.36675 11.4268 4.72153C11.4268 5.02538 11.6713 5.26984 11.9751 5.26984C12.279 5.26984 12.5234 5.02538 12.5234 4.72153C12.5234 3.05604 11.8266 1.55048 10.7095 0.485846C10.4901 0.277946 10.1429 0.2848 9.93497 0.504123C9.72707 0.723447 9.73392 1.07071 9.95324 1.27861L9.95096 1.28089Z" fill="white"/>
</svg>
