<svg width="79" height="58" viewBox="0 0 79 58" fill="none" xmlns="http://www.w3.org/2000/svg">
<path d="M70.9381 26.8778C66.2376 18.172 60.7535 9.73015 52.9187 4.19011C52.1352 3.66255 51.6129 3.39855 50.8294 2.87099C39.5999 -3.19661 24.7147 2.34343 18.7084 8.41103C14.5301 12.6319 4.60641 23.9756 1.21168 37.4321C0.949037 38.7512 -1.66081 50.0949 4.60641 55.3713C6.43444 56.954 9.04603 57.7456 12.1794 57.7456C15.8355 57.7456 20.2751 56.6905 25.4979 54.3162C34.3767 50.3589 41.9501 49.3038 48.2169 51.4144C50.0449 51.942 51.873 52.9971 53.9623 54.0527C56.3126 55.3718 58.6628 56.6909 61.0131 57.2185C65.7136 58.2736 72.2426 56.1634 75.6373 52.47C81.6436 45.8748 75.9 35.8499 72.2426 29.2538C71.7095 28.5211 71.2712 27.7226 70.9381 26.8778Z" fill="#471E6D"/>
</svg>
