<svg width="12" height="12" viewBox="0 0 12 12" fill="none" xmlns="http://www.w3.org/2000/svg">
<path fill-rule="evenodd" clip-rule="evenodd" d="M11.8374 4C11.9629 4.24069 12 4.59009 12 5.1035V6.97013C12 7.46526 11.7393 7.77587 11.2178 7.90196C11.2178 8.1319 11.2179 8.36402 11.2181 8.59759C11.2183 9.06912 11.2185 9.54663 11.2178 10.0241C11.2148 11.1233 10.8323 11.4996 9.71709 11.4996C8.8818 11.4996 8.04641 11.4997 7.21098 11.4998C5.54001 11.5 3.86888 11.5002 2.19821 11.4996C1.22126 11.4996 0.795355 11.0846 0.78829 10.132C0.784253 9.51014 0.781225 8.88727 0.789299 8.26539C0.792327 8.01287 0.776179 7.81581 0.436063 7.80888C0.0929196 7.80195 -0.00295875 7.57815 6.89913e-05 7.27315C0.00449643 6.81539 0.00376473 6.35763 0.00303278 5.8997C0.00242992 5.52254 0.00182689 5.14528 0.00410597 4.76781C0.0091522 3.89737 0.433035 3.48345 1.32016 3.4676C1.41343 3.46619 1.50721 3.46028 1.616 3.45343C1.66024 3.45064 1.70698 3.44769 1.75717 3.44483C1.41301 2.33376 1.53009 1.33162 2.64833 0.776091C4.18339 0.0135944 5.15126 0.9682 5.92939 1.96737C6.06313 1.85255 6.19164 1.73783 6.318 1.62504C6.58832 1.38374 6.84878 1.15124 7.12938 0.945424C8.06532 0.258251 9.23666 0.422096 9.91564 1.14279L8.99648 1.76833C8.70582 1.45739 8.25368 1.46927 7.88934 1.69703C7.33375 2.04538 6.97807 2.56368 6.58794 3.13217C6.51672 3.23595 6.44436 3.3414 6.36942 3.4478L6.37043 3.44879C6.61951 3.44879 6.85734 3.45176 7.08721 3.45463C7.08721 3.45463 7.37874 3.45463 7.56554 3.45463C7.58381 3.45463 7.59684 3.45632 7.61234 3.45463C7.62784 3.45294 6.48946 4.53609 6.48946 4.53609H6.55916H6.318H6H5.64645H5.44798L1.06785 4.54203V6.1304C1.06785 6.57403 1.29426 6.79618 1.74707 6.79684H2.5V7.33026V7.82274H1.86314V10.4192H5.44798H5.55836H5.73443H6.26507H6.43624H6.55916L10.1369 10.4311V7.81086H9.5V7.29482V6.79289L9.63947 6.79783C9.84056 6.79783 10.0416 6.79854 10.2426 6.79925C10.8273 6.80133 9.91397 6.8034 10.4982 6.78793C10.6426 6.78397 10.904 6.6582 10.908 6.57898C10.9337 6.05647 10.9312 5.53219 10.9287 5.0066L11.8374 4ZM5.60131 3.39243C5.58117 3.41683 5.56103 3.44122 5.54065 3.46562C5.34924 3.46562 5.15774 3.46717 4.96623 3.46872C4.52669 3.47228 4.08709 3.47584 3.64849 3.46067C3.17818 3.44483 2.80577 3.23192 2.68264 2.75957C2.57566 2.34861 2.68063 1.97826 3.06515 1.73367C3.47187 1.47521 3.92301 1.45541 4.26413 1.77724C4.61833 2.11223 4.93758 2.48249 5.25664 2.85254C5.39124 3.00864 5.5258 3.16471 5.66295 3.31807C5.64226 3.34283 5.62175 3.36767 5.60131 3.39243Z" fill="white"/>
<path d="M11.8374 2.20711C12.0327 2.01184 12.0327 1.69526 11.8374 1.5C11.6422 1.30474 11.3256 1.30474 11.1303 1.5L6 6.79289L4.85355 5.64645C4.65829 5.45118 4.34171 5.45118 4.14645 5.64645C3.95118 5.84171 3.95118 6.15829 4.14645 6.35355L5.64645 7.85355C5.84171 8.04882 6.15829 8.04882 6.35355 7.85355L11.8374 2.20711Z" fill="white"/>
</svg>
