<svg width="12" height="12" viewBox="0 0 12 12" fill="none" xmlns="http://www.w3.org/2000/svg">
<path d="M10.3327 3.42106C10.3781 3.43492 10.4246 3.4577 10.473 3.46166C11.7648 3.55772 12 3.81023 12 5.1035C12 5.72538 12 6.34825 12 6.97013C12 7.46526 11.7393 7.77587 11.2178 7.90196C11.2178 8.59613 11.2188 9.31011 11.2178 10.0241C11.2148 11.1233 10.8323 11.4996 9.71709 11.4996C7.21113 11.4996 4.70416 11.5006 2.19821 11.4996C1.22126 11.4996 0.795355 11.0846 0.78829 10.132C0.784253 9.51014 0.781225 8.88727 0.789299 8.26539C0.792327 8.01287 0.776179 7.81581 0.436063 7.80888C0.0929196 7.80195 -0.00295875 7.57815 6.89913e-05 7.27315C0.00814296 6.43837 -0.000940254 5.60358 0.00410597 4.76781C0.0091522 3.89737 0.433035 3.48345 1.32016 3.4676C1.45136 3.46562 1.58358 3.45473 1.75717 3.44483C1.41301 2.33376 1.53009 1.33162 2.64833 0.776091C4.18339 0.0135944 5.15126 0.9682 5.92939 1.96737C6.34923 1.60691 6.71761 1.24745 7.12938 0.945424C8.45654 -0.0289866 10.257 0.707763 10.4559 2.31693C10.5003 2.67243 10.3792 3.04873 10.3337 3.42106H10.3327ZM4.44882 7.82274H1.86314V10.4192H5.44798V4.54203H1.06785C1.06785 5.09063 1.06785 5.61051 1.06785 6.1304C1.06785 6.57403 1.29426 6.79618 1.74707 6.79684C2.64328 6.79684 3.53949 6.79684 4.44882 6.79684V7.82175V7.82274ZM7.56336 7.81086V6.79783C7.77833 6.79783 7.95999 6.79783 8.14165 6.79783C8.92786 6.79783 9.71305 6.80872 10.4982 6.78793C10.6426 6.78397 10.904 6.6582 10.908 6.57898C10.9413 5.90066 10.9272 5.21936 10.9272 4.53609H6.55916V10.4311H10.1369V7.81086H7.56437H7.56336ZM6.37043 3.44879C7.18388 3.44879 7.87723 3.48048 8.56554 3.43691C8.99649 3.40918 9.35679 3.122 9.36385 2.6952C9.3689 2.38228 9.21347 2.00005 8.99648 1.76833C8.70582 1.45739 8.25368 1.46927 7.88934 1.69703C7.23232 2.10897 6.85487 2.75858 6.36942 3.4478L6.37043 3.44879ZM5.53982 3.46661C5.5812 3.4171 5.62157 3.36759 5.66295 3.31807C5.20071 2.80116 4.76775 2.25355 4.26413 1.77724C3.92301 1.45541 3.47187 1.47521 3.06515 1.73367C2.68063 1.97826 2.57566 2.34862 2.68264 2.75957C2.80577 3.23192 3.17818 3.44483 3.64849 3.46067C4.27826 3.48246 4.91005 3.46562 5.54083 3.46562L5.53982 3.46661Z" fill="white"/>
</svg>
