<svg width="10" height="14" viewBox="0 0 10 14" fill="none" xmlns="http://www.w3.org/2000/svg">
<path fill-rule="evenodd" clip-rule="evenodd" d="M5.00014 2.00917C3.98937 2.00917 3.16998 2.82856 3.16998 3.83933C3.16998 4.8501 3.98937 5.66949 5.00014 5.66949C6.01091 5.66949 6.8303 4.8501 6.8303 3.83933C6.8303 2.82856 6.01091 2.00917 5.00014 2.00917ZM1.94987 3.83933C1.94987 2.15471 3.31552 0.789062 5.00014 0.789062C6.68475 0.789062 8.05041 2.15471 8.05041 3.83933C8.05041 5.52395 6.68475 6.8896 5.00014 6.8896C3.31552 6.8896 1.94987 5.52395 1.94987 3.83933Z" fill="white"/>
<path fill-rule="evenodd" clip-rule="evenodd" d="M1.26901 11.9946H8.73099C8.43959 10.1964 6.88094 8.82476 5 8.82476C3.11906 8.82476 1.56041 10.1964 1.26901 11.9946ZM0 12.6046C0 9.84215 2.2375 7.60465 5 7.60465C7.7625 7.60465 10 9.84215 10 12.6046C10 12.9416 9.72687 13.2147 9.38995 13.2147H0.610054C0.27313 13.2147 0 12.9416 0 12.6046Z" fill="white"/>
</svg>
