<svg width="24" height="21" viewBox="0 0 24 21" fill="none" xmlns="http://www.w3.org/2000/svg">
<path d="M16.5 5.35312L21.6562 10.5L16.5 15.6469V13.125C16.5 12.5016 15.9984 12 15.375 12H9.75V9H15.375C15.9984 9 16.5 8.49844 16.5 7.875V5.35312ZM24 10.5C24 9.96094 23.7844 9.44531 23.4047 9.06562L17.9625 3.6375C17.5547 3.22969 17.0016 3 16.425 3C15.225 3 14.25 3.975 14.25 5.175V6.75H9.75C8.50781 6.75 7.5 7.75781 7.5 9V12C7.5 13.2422 8.50781 14.25 9.75 14.25H14.25V15.825C14.25 17.025 15.225 18 16.425 18C17.0016 18 17.5547 17.7703 17.9625 17.3625L23.4047 11.9344C23.7844 11.5547 24 11.0391 24 10.5ZM7.875 2.25C8.49844 2.25 9 1.74844 9 1.125C9 0.501562 8.49844 0 7.875 0H4.125C1.84688 0 0 1.84688 0 4.125V16.875C0 19.1531 1.84688 21 4.125 21H7.875C8.49844 21 9 20.4984 9 19.875C9 19.2516 8.49844 18.75 7.875 18.75H4.125C3.08906 18.75 2.25 17.9109 2.25 16.875V4.125C2.25 3.08906 3.08906 2.25 4.125 2.25H7.875Z" fill="white"/>
</svg>
