<svg width="22" height="24" viewBox="0 0 22 24" fill="none" xmlns="http://www.w3.org/2000/svg">
<path fill-rule="evenodd" clip-rule="evenodd" d="M13.2049 1.49119C12.872 0.619475 12.0132 0 11.0069 0C10.0006 0 9.14186 0.619475 8.80894 1.49119C5.15825 2.44451 2.47603 5.70139 2.47603 9.57774V15.3088L0.187253 18.6696C-0.0397334 19.0034 -0.062432 19.4337 0.130506 19.7898C0.323444 20.1459 0.701755 20.3648 1.11033 20.3648H6.8266C7.0725 22.4124 8.84678 24 10.9994 24C13.1519 24 14.93 22.4124 15.1721 20.3648H20.8884C21.297 20.3648 21.6753 20.1422 21.8682 19.7898C22.0612 19.4337 22.0422 19.0034 21.8115 18.6696L19.5265 15.3088V9.57774C19.5265 5.7051 16.8405 2.44451 13.1973 1.4949L13.2049 1.49119ZM12.9212 20.3611H9.08889C9.30831 21.1994 10.0838 21.8151 11.0031 21.8151C11.9224 21.8151 12.698 21.1957 12.9174 20.3611H12.9212ZM11.0069 3.39042C7.52647 3.39042 4.70049 6.15765 4.70049 9.57403V15.6352C4.70049 15.8504 4.63618 16.0618 4.51512 16.2399L3.19482 18.1799H18.8153L17.4949 16.2399C17.3739 16.0618 17.3096 15.8504 17.3096 15.6352V9.57403C17.3096 6.16136 14.4874 3.39042 11.0031 3.39042H11.0069Z" fill="white"/>
</svg>
