<svg width="12" height="12" viewBox="0 0 12 12" fill="none" xmlns="http://www.w3.org/2000/svg">
<path fill-rule="evenodd" clip-rule="evenodd" d="M6.00125 0.25C6.21167 0.250055 6.40381 0.369907 6.49688 0.559162L8.05095 3.71924L11.5266 4.22509C11.7348 4.25539 11.9078 4.40159 11.9729 4.60224C12.038 4.80288 11.9838 5.02318 11.8332 5.17053L9.31909 7.63043L9.91137 11.1021C9.94684 11.3101 9.86155 11.5202 9.69134 11.6442C9.52113 11.7682 9.29551 11.7845 9.1093 11.6863L6.00102 10.0479L2.89057 11.6864C2.70431 11.7845 2.47865 11.7681 2.30847 11.644C2.13829 11.52 2.05309 11.3098 2.08869 11.1018L2.68295 7.63043L0.166936 5.17068C0.0162566 5.02337 -0.0379579 4.80304 0.0270905 4.60235C0.0921389 4.40165 0.265167 4.25539 0.473415 4.22509L3.94923 3.71922L5.50546 0.558903C5.59863 0.369697 5.79083 0.249945 6.00125 0.25ZM6.00078 2.05704L4.81185 4.47147C4.73129 4.63505 4.57563 4.74842 4.39559 4.77462L1.74086 5.16099L3.66283 7.03998C3.79312 7.16736 3.85256 7.35089 3.82178 7.53075L3.36781 10.1826L5.74404 8.93083C5.90504 8.84601 6.09733 8.84604 6.2583 8.9309L8.63285 10.1826L8.18038 7.53043C8.14973 7.35075 8.20912 7.16744 8.33922 7.04013L10.2597 5.16107L7.60441 4.77462C7.42427 4.7484 7.26854 4.63493 7.18803 4.47121L6.00078 2.05704Z" fill="white"/>
</svg>
